# xmcd
#
# Track frame offsets:
#	150
#	22608
#	40812
#	56329
#	73443
#	92229
#	110411
#	122826
#	136501
#	160028
#	184160
#	210018
#	225682
#	241920
#	260953
#	278079
#	300260
#
# Disc length: 4428 seconds
# Revision: 0
# Processed by: cddbd v1.5.2PL0 Copyright (c) Steve Scherf et al.
# Submitted via: dBpowerAMP V12.0
#
DISCID=db114a11
DTITLE=Various Artist - Bayfront Blues Collectors Club Volume Three
DYEAR=2017
DGENRE=Blues
TTITLE0=Big Walter Smith and The Groove Merchants - She's Mine
TTITLE1=Slick Ballinger - Mississippi Soul
TTITLE2=Davina and the Vagabonds - Sunshine
TTITLE3=Mick Sterling - It's Been a Long Time
TTITLE4=Mary Cutrufello - Lonesome and Wine
TTITLE5=Cole Allen - Shoulda Known Better
TTITLE6=Syl Johnson - Dresses Too Short
TTITLE7=Joyann Parker - Either Way
TTITLE8=Tom Hunter - Here I Go Again
TTITLE9=Bruce McCabe - Dream Come True
TTITLE10=Paul Metsa - Robots on Death Row
TTITLE11=Chris Barnes - It Hurts Me Too
TTITLE12=Luther Allison - Cut You Loose
TTITLE13=Randy McDonald - Take it Easy Greasy
TTITLE14=Beverly McLellan - Can't Hide Me
TTITLE15=Vicci Martinez - Is it Rain
TTITLE16=Mick Sterling and The Stud Brothers - Why Wouldn't I Fall in Love With You
EXTD=
EXTT0=
EXTT1=
EXTT2=
EXTT3=
EXTT4=
EXTT5=
EXTT6=
EXTT7=
EXTT8=
EXTT9=
EXTT10=
EXTT11=
EXTT12=
EXTT13=
EXTT14=
EXTT15=
EXTT16=
PLAYORDER=
